# xmcd
#
# Track frame offsets:
#	150
#	19193
#	34190
#	52085
#	70944
#	96113
#	115409
#	135010
#	157252
#
# Disc length: 2596 seconds
#
# Revision: 1
# Processed by: cddbd v1.5.2PL0 Copyright (c) Steve Scherf et al.
# Submitted via: EasyCDDAExtractor 15.3.0.1
#
DISCID=780a2209
DTITLE=Al and The Coholics - Goin' Down Slow
DYEAR=2001
DGENRE=Blues
TTITLE0=Up The Line
TTITLE1=Wake Up Call
TTITLE2=Scratch My Back
TTITLE3=Caldonia
TTITLE4=The Briar Patch
TTITLE5=Hoochie Coochie Man
TTITLE6=Full Moon
TTITLE7=Mojo
TTITLE8=Going Down Slow
EXTD=Al and the Coholics Crazy Elephant
EXTT0=
EXTT1=
EXTT2=
EXTT3=
EXTT4=
EXTT5=
EXTT6=
EXTT7=
EXTT8=
PLAYORDER=
